<?xml version="1.0" standalone="no"?>
<!DOCTYPE svg PUBLIC "-//W3C//DTD SVG 20010904//EN"
 "http://www.w3.org/TR/2001/REC-SVG-20010904/DTD/svg10.dtd">
<svg version="1.0" xmlns="http://www.w3.org/2000/svg"
 width="300.000000pt" height="300.000000pt" viewBox="0 0 300.000000 300.000000"
 preserveAspectRatio="xMidYMid meet">
<metadata>
Created by potrace 1.10, written by Peter Selinger 2001-2011
</metadata>
<g transform="translate(0.000000,300.000000) scale(0.100000,-0.100000)"
fill="#000000" stroke="none">
<path d="M254 2483 c15 -150 67 -264 157 -347 64 -59 215 -142 434 -236 l130
-57 1 -94 c1 -144 37 -265 106 -351 43 -55 47 -33 7 37 -75 134 -79 292 -9
453 12 29 21 54 19 55 -2 2 -60 34 -129 72 -257 139 -525 328 -634 446 -36 39
-66 75 -66 80 0 5 -5 9 -11 9 -8 0 -9 -20 -5 -67z m122 -103 c143 -130 400
-305 587 -400 48 -25 87 -50 87 -58 0 -18 -28 -82 -35 -82 -4 0 -14 9 -23 19
-10 11 -64 41 -122 66 -58 26 -167 79 -243 118 -160 83 -234 147 -286 248 -29
57 -52 149 -38 149 4 0 37 -27 73 -60z"/>
<path d="M2757 2502 c-94 -124 -372 -326 -679 -493 -65 -35 -118 -70 -118 -77
0 -7 9 -31 20 -52 73 -142 59 -342 -32 -479 -36 -54 -28 -67 12 -20 79 93 120
215 120 362 0 64 4 98 13 104 6 5 46 22 87 39 128 50 362 169 427 217 35 26
77 66 94 89 65 88 104 213 97 311 l-3 48 -38 -49z m-2 -102 c-3 -10 -8 -29
-10 -41 -14 -73 -95 -185 -170 -236 -51 -34 -234 -128 -360 -183 -66 -29 -130
-64 -142 -77 -12 -12 -24 -23 -27 -23 -11 0 -44 77 -38 86 9 11 34 27 92 57
176 91 460 286 598 409 43 39 68 42 57 8z"/>
<path d="M350 2070 c62 -158 206 -273 410 -329 41 -12 84 -21 95 -21 34 0 47
-15 56 -65 10 -56 58 -165 71 -165 6 0 7 8 3 18 -26 64 -37 120 -42 214 -6
105 -6 107 -32 113 -49 12 -247 93 -327 133 -44 22 -118 65 -164 96 -46 31
-85 56 -86 56 -2 0 5 -22 16 -50z m263 -154 c73 -35 167 -76 210 -91 73 -26
77 -29 77 -57 0 -20 -4 -29 -13 -25 -34 13 -128 27 -138 21 -8 -4 -9 -3 -5 4
4 7 2 12 -4 12 -7 0 -50 18 -97 40 -86 40 -168 103 -191 146 -16 30 -7 50 14
29 8 -8 74 -43 147 -79z"/>
<path d="M2645 2069 c-94 -65 -264 -149 -409 -202 l-119 -44 -2 -94 c-2 -63
-10 -116 -24 -159 -26 -80 -26 -92 -1 -62 20 25 60 139 60 173 0 23 19 31 120
53 120 26 250 94 324 168 59 59 134 183 125 206 -2 5 -35 -13 -74 -39z m-27
-92 c-20 -37 -113 -114 -176 -146 -105 -53 -277 -100 -285 -77 -10 29 9 46 77
71 118 44 167 66 246 108 110 59 145 76 148 72 2 -2 -2 -14 -10 -28z"/>
<path d="M1332 1970 c-39 -16 -115 -72 -153 -113 -81 -86 -120 -205 -100 -309
14 -79 61 -166 116 -217 50 -46 187 -117 205 -106 6 4 10 24 8 45 -2 38 -4 40
-74 75 -268 132 -273 471 -9 601 30 14 55 28 55 30 0 7 -24 3 -48 -6z"/>
<path d="M1725 1949 c74 -37 138 -98 173 -164 23 -43 27 -61 26 -135 -1 -138
-49 -217 -174 -290 -71 -41 -80 -53 -80 -101 0 -37 11 -37 87 1 76 38 155 116
190 189 25 50 28 67 28 156 0 91 -3 105 -29 158 -48 94 -198 218 -263 217 -10
-1 9 -14 42 -31z m101 -598 c-29 -32 -96 -75 -104 -66 -4 4 2 14 13 21 86 62
123 80 91 45z"/>
<path d="M1300 1812 c0 -6 12 -12 28 -14 l27 -3 3 -164 c3 -171 0 -186 -41
-194 -12 -3 37 -4 108 -4 148 2 187 15 233 75 21 28 27 48 30 103 5 85 -21
138 -86 176 -38 23 -57 26 -172 31 -90 3 -130 2 -130 -6z m261 -45 c51 -34 71
-80 66 -152 -2 -34 -12 -75 -21 -93 -22 -43 -84 -74 -142 -70 l-46 3 -1 168
-2 167 56 0 c42 0 65 -6 90 -23z"/>
<path d="M1566 1725 c-7 -20 7 -56 33 -79 27 -25 28 -7 1 52 -21 46 -25 49
-34 27z"/>
<path d="M1564 1548 c3 -13 6 -30 6 -37 0 -11 3 -12 11 -4 12 12 2 63 -13 63
-6 0 -8 -10 -4 -22z"/>
<path d="M1645 1780 c3 -5 14 -10 24 -10 29 0 71 -39 71 -66 0 -13 5 -24 10
-24 6 0 10 25 10 55 0 49 -12 73 -22 44 -3 -9 -9 -9 -25 0 -27 14 -77 15 -68
1z"/>
<path d="M2509 1760 c-35 -20 -172 -61 -244 -73 l-78 -13 -23 -69 c-13 -39
-24 -72 -24 -75 0 -3 13 10 29 29 24 29 40 37 92 48 78 15 169 61 229 112 43
37 53 60 19 41z"/>
<path d="M573 1716 c63 -56 136 -92 221 -107 52 -10 72 -18 83 -36 14 -22 40
-23 27 -1 -4 6 -12 31 -18 56 l-12 46 -79 13 c-43 7 -118 27 -167 43 -49 17
-92 30 -96 30 -4 -1 15 -20 41 -44z m257 -77 c0 -5 8 -9 17 -9 11 0 13 -3 7
-9 -5 -6 -25 -6 -53 0 -72 16 -81 27 -23 27 29 1 52 -3 52 -9z"/>
<path d="M1705 1608 c0 -13 9 -35 19 -50 17 -26 17 -30 2 -53 -11 -17 -26 -25
-46 -25 -16 0 -32 -4 -35 -10 -4 -6 10 -10 35 -10 33 0 48 6 71 29 36 36 37
70 3 110 -30 37 -50 40 -49 9z"/>
<path d="M601 909 c-18 -43 -37 -79 -42 -79 -5 0 -9 -4 -9 -10 0 -5 14 -10 31
-10 25 0 29 3 21 13 -17 20 2 39 34 35 23 -2 29 -8 28 -25 -1 -22 3 -23 75
-23 57 1 72 3 59 11 -19 11 -25 59 -8 59 5 0 20 -16 32 -35 22 -34 25 -35 87
-35 61 0 63 1 48 18 -18 19 -23 52 -9 52 16 0 54 -48 47 -59 -4 -7 10 -11 42
-10 41 0 45 2 29 12 -11 7 -38 28 -59 48 l-40 36 41 29 c50 35 52 44 12 44
-22 0 -30 -5 -30 -18 0 -18 -29 -52 -43 -52 -13 0 -7 34 10 52 15 17 14 18
-28 18 -39 -1 -42 -2 -26 -14 15 -11 17 -26 15 -77 -4 -74 -16 -83 -59 -39
-29 29 -30 32 -15 49 19 21 21 52 4 69 -14 14 -118 16 -118 2 0 -5 5 -10 10
-10 6 0 10 -30 10 -70 0 -55 -3 -70 -15 -70 -18 0 -38 30 -65 100 -12 30 -24
58 -28 62 -4 4 -22 -29 -41 -73z m225 36 c7 -18 -12 -45 -32 -45 -9 0 -14 11
-14 30 0 23 4 30 20 30 11 0 23 -7 26 -15z m-183 -63 c-24 -6 -31 3 -21 28 l9
24 12 -24 c11 -20 10 -26 0 -28z"/>
<path d="M1382 982 c-16 -2 -20 -7 -14 -15 6 -8 3 -22 -8 -40 l-17 -28 -16 25
c-9 14 -14 32 -11 40 5 14 -4 16 -61 16 -52 0 -66 -3 -62 -14 3 -7 -3 -26 -13
-41 l-18 -28 -15 29 c-8 16 -12 35 -10 42 3 8 -7 12 -31 12 -20 0 -36 -4 -36
-10 0 -5 4 -10 9 -10 4 0 20 -18 35 -40 27 -42 35 -95 14 -103 -7 -2 4 -6 25
-9 39 -4 61 7 33 18 -24 9 -19 44 11 89 44 66 56 66 97 4 26 -39 35 -89 16
-89 -5 0 -10 -7 -10 -15 0 -11 8 -13 33 -8 37 7 47 14 30 20 -31 11 5 103 53
138 14 9 14 13 3 16 -8 3 -24 3 -37 1z"/>
<path d="M1506 972 c-27 -31 -20 -58 26 -89 48 -32 53 -47 19 -51 -17 -3 -30
4 -43 20 l-18 23 0 -35 c0 -35 0 -35 45 -35 49 0 65 13 65 52 0 25 -9 35 -58
64 -36 21 -35 39 2 39 14 0 27 -9 34 -22 10 -21 11 -20 11 12 1 33 -1 35 -33
37 -22 2 -39 -3 -50 -15z"/>
<path d="M1865 963 c-12 -51 -60 -138 -78 -141 -15 -3 -17 6 -17 67 0 41 4 71
10 71 6 0 10 5 10 10 0 6 -19 10 -42 10 -38 -1 -41 -2 -25 -14 9 -7 17 -22 17
-34 0 -15 -8 -21 -35 -24 -33 -4 -35 -2 -35 24 0 15 5 28 10 28 6 0 10 5 10
10 0 6 -16 10 -35 10 -19 0 -35 -4 -35 -10 0 -5 5 -10 10 -10 6 0 10 -28 10
-64 0 -36 -4 -68 -10 -71 -21 -13 -9 -21 26 -17 25 3 33 7 25 15 -6 6 -11 23
-11 37 0 24 4 27 35 27 32 0 35 -3 35 -29 0 -16 -6 -31 -15 -34 -31 -12 -5
-19 60 -16 46 3 64 7 57 14 -18 18 -1 38 33 38 35 0 51 -20 32 -39 -8 -8 14
-11 86 -11 91 0 100 2 122 25 31 30 33 82 4 119 -18 23 -27 26 -85 26 -36 0
-64 -4 -64 -10 0 -5 5 -10 10 -10 6 0 10 -30 10 -70 0 -55 -3 -70 -15 -70 -19
0 -37 30 -66 107 -13 35 -27 63 -31 63 -3 0 -9 -12 -13 -27z m218 -15 c9 -7
20 -27 23 -44 7 -38 -22 -74 -61 -74 -24 0 -25 2 -25 65 0 61 1 65 23 65 13 0
31 -6 40 -12z m-194 -45 c11 -21 9 -23 -13 -23 -24 0 -25 2 -14 25 6 14 12 24
13 23 1 -2 8 -13 14 -25z"/>
<path d="M2185 965 c-20 -19 -25 -34 -25 -73 0 -56 17 -78 68 -88 26 -5 36 -1
63 25 28 29 31 36 26 74 -11 78 -83 112 -132 62z m83 -18 c35 -42 15 -117 -31
-117 -34 0 -47 19 -47 65 0 23 5 46 12 53 16 16 53 15 66 -1z"/>
<path d="M2511 981 c-9 -6 -10 -10 -2 -16 12 -7 9 -22 -11 -75 -10 -25 -10
-25 -24 14 -8 22 -12 48 -8 58 4 15 0 18 -25 18 -33 0 -39 -8 -20 -27 13 -13
4 -83 -10 -83 -12 0 -35 86 -26 99 4 7 -5 11 -24 11 -30 0 -41 -13 -22 -25 5
-3 19 -36 31 -73 13 -37 26 -71 30 -75 4 -5 16 15 25 44 l18 54 14 -40 c7 -22
16 -47 19 -55 4 -9 18 17 35 65 17 43 34 84 40 91 6 8 4 14 -7 18 -19 7 -16 8
-33 -3z"/>
<path d="M2586 972 c-27 -31 -20 -58 26 -89 48 -32 53 -47 19 -51 -17 -3 -30
4 -43 20 l-18 23 0 -35 c0 -34 1 -35 38 -34 58 1 62 3 71 27 12 31 -4 59 -46
82 -43 24 -47 39 -11 43 19 2 28 -2 33 -17 3 -12 11 -21 17 -21 5 0 7 7 4 16
-3 9 -6 23 -6 32 0 25 -62 27 -84 4z"/>
<path d="M383 966 c24 -19 25 -131 1 -140 -30 -12 -5 -20 54 -17 75 3 102 27
102 88 0 65 -23 83 -107 83 -59 -1 -66 -2 -50 -14z m109 -23 c38 -35 12 -113
-39 -113 -22 0 -23 3 -23 65 0 60 2 65 22 65 12 0 30 -7 40 -17z"/>
<path d="M955 665 l0 -56 39 3 c22 2 41 9 44 16 3 11 0 12 -16 3 -11 -6 -25
-11 -31 -11 -16 0 -14 87 2 93 6 3 1 6 -13 6 -24 1 -25 -2 -25 -54z"/>
<path d="M1335 665 c0 -42 3 -55 15 -55 12 0 15 13 15 55 0 42 -3 55 -15 55
-12 0 -15 -13 -15 -55z"/>
<path d="M1539 696 c-15 -32 -4 -73 21 -81 23 -7 60 2 60 16 0 5 -9 4 -19 -3
-35 -21 -63 20 -45 66 7 19 35 21 52 4 9 -9 12 -8 12 5 0 13 -9 17 -35 17 -28
0 -38 -5 -46 -24z"/>
<path d="M1065 650 c0 -22 5 -40 10 -40 6 0 10 18 10 40 0 22 -4 40 -10 40 -5
0 -10 -18 -10 -40z"/>
<path d="M1115 650 c0 -25 5 -40 12 -40 9 0 11 12 8 36 -4 32 -2 36 15 31 11
-3 20 -1 20 4 0 5 -12 9 -27 9 -26 0 -28 -3 -28 -40z"/>
<path d="M1195 650 c0 -37 2 -40 28 -40 15 0 27 4 27 9 0 5 -9 7 -20 4 -17 -5
-20 0 -20 27 0 27 3 32 20 27 11 -3 20 -1 20 4 0 5 -12 9 -27 9 -26 0 -28 -3
-28 -40z"/>
<path d="M1400 671 c0 -10 7 -21 15 -25 25 -9 18 -28 -7 -21 -18 6 -20 4 -12
-5 7 -6 20 -10 30 -8 27 5 30 35 5 43 -12 3 -21 11 -21 16 0 6 9 7 20 4 11 -4
20 -2 20 4 0 6 -11 11 -25 11 -18 0 -25 -5 -25 -19z"/>
<path d="M1657 684 c-4 -4 -7 -20 -7 -35 0 -19 6 -30 20 -34 28 -9 52 13 48
44 -2 19 -9 27 -28 29 -14 2 -29 0 -33 -4z m47 -19 c7 -20 -3 -45 -19 -45 -7
0 -15 7 -19 15 -7 20 3 45 19 45 7 0 15 -7 19 -15z"/>
<path d="M1745 650 c0 -44 15 -56 16 -12 l1 27 10 -29 c8 -21 13 -25 19 -15
12 19 11 32 -1 24 -5 -3 -12 6 -16 20 -10 40 -29 30 -29 -15z"/>
<path d="M1807 677 c-7 -18 3 -67 14 -67 5 0 9 18 9 40 0 39 -13 54 -23 27z"/>
<path d="M1860 650 c0 -38 2 -40 30 -40 17 0 30 4 30 9 0 5 -9 7 -20 4 -17 -5
-20 0 -20 27 0 27 3 32 20 27 11 -3 20 -1 20 4 0 5 -13 9 -30 9 -28 0 -30 -2
-30 -40z"/>
<path d="M1945 650 c0 -33 3 -40 20 -40 33 0 47 15 43 46 -2 24 -8 30 -33 32
-29 3 -30 1 -30 -38z m49 14 c6 -17 -9 -44 -25 -44 -5 0 -9 14 -9 30 0 33 23
42 34 14z"/>
<path d="M2040 681 c0 -6 5 -13 10 -16 6 -3 10 -17 10 -31 0 -14 6 -24 15 -24
9 0 12 6 9 15 -4 8 1 26 10 40 9 14 12 25 7 25 -5 0 -12 -8 -16 -17 -6 -17 -7
-17 -19 0 -14 19 -26 22 -26 8z"/>
</g>
</svg>
